<?xml version="1.0" encoding="utf-8"?>
<!-- Generator: Adobe Illustrator 27.8.1, SVG Export Plug-In . SVG Version: 6.00 Build 0)  -->
<svg version="1.1" id="Layer_1" xmlns="http://www.w3.org/2000/svg" xmlns:xlink="http://www.w3.org/1999/xlink" x="0px" y="0px"
	 viewBox="0 0 512 512" style="enable-background:new 0 0 512 512;" xml:space="preserve">
<style type="text/css">
	.st0{fill:#FFFFFF;}
</style>
<path class="st0" d="M0,256C0,114.6,114.6,0,256,0s256,114.6,256,256S397.4,512,256,512S0,397.4,0,256z M256,288
	c-17.7,0-32-14.3-32-32s14.3-32,32-32s32,14.3,32,32S273.7,288,256,288z M160,256c0,53,43,96,96,96s96-43,96-96s-43-96-96-96
	S160,203,160,256z M96,240c0-35,17.5-71.1,45.2-98.8S205,96,240,96c8.8,0,16-7.2,16-16s-7.2-16-16-16c-45.4,0-89.2,22.3-121.5,54.5
	S64,194.6,64,240c0,8.8,7.2,16,16,16S96,248.8,96,240z"/>
</svg>
